<svg id="Layer_1" data-name="Layer 1" xmlns="http://www.w3.org/2000/svg" xmlns:xlink="http://www.w3.org/1999/xlink" viewBox="0 0 47 34"><defs><style>.cls-1{fill:url(#linear-gradient);}</style><linearGradient id="linear-gradient" x1="2.53" y1="14.78" x2="43.59" y2="14.78" gradientUnits="userSpaceOnUse"><stop offset="0" stop-color="#dce3eb"/><stop offset="1" stop-color="#fff"/></linearGradient></defs><title>Artboard 371x</title><path class="cls-1" d="M39.39,13h0A6.35,6.35,0,0,0,33,6.66H27.24A4.66,4.66,0,0,0,22.58,2h-.84a11,11,0,0,0-11,11H9.8a7.28,7.28,0,0,0-7.27,7.28h0A7.28,7.28,0,0,0,9.8,27.56H39.6a7.28,7.28,0,0,0,7.27-7.27h0A7.28,7.28,0,0,0,39.6,13Z"/></svg>