<svg id="Layer_1" data-name="Layer 1" xmlns="http://www.w3.org/2000/svg" viewBox="0 0 127 119"><defs><style>.cls-1{fill:#3434ce;}.cls-2{fill:aqua;}.cls-3{fill:#13eadf;}.cls-4{font-size:47.63px;}.cls-4,.cls-5,.cls-7{fill:#fff;font-family:MyriadPro-Regular, Myriad Pro;}.cls-5{font-size:34.88px;}.cls-6{fill:#09d8d2;}.cls-7{font-size:69.61px;}</style></defs><title>Artboard 341x</title><path class="cls-1" d="M79.26,100.53C73.84,98.62,68,98.77,62.36,99c-4.85.2-9.81.42-14.49-1.07-8-2.53-11.2-10.92-9-18.41a17.52,17.52,0,0,1,6.95-9.15,23.06,23.06,0,0,1,11.87-4c5.61-.23,11,1.31,16.47,2.47A60.17,60.17,0,0,0,91,70.39c10.3-.74,20.3-5.11,26.37-13.73,5.54-7.85,6.22-19.33.29-27.19C111.36,21.06,99.78,18.9,89.85,18.9A59.58,59.58,0,0,0,60,27c-8.19,4.79-14.71,11.85-22.61,17a32.06,32.06,0,0,1-12.6,5.26,26,26,0,0,1-13.35-1.6,25.62,25.62,0,0,1-5.91-3.36,3,3,0,0,0-4.1,1.08,3.05,3.05,0,0,0,1.07,4.1,31.56,31.56,0,0,0,28.79,4.29C40.43,50.53,47.54,43.71,55,37.73A57,57,0,0,1,81.4,25.56a52.18,52.18,0,0,1,15.18-.25,29.33,29.33,0,0,1,12.76,4.32c7.38,5,8.2,15.22,3.9,22.44-4.85,8.14-14.37,12-23.59,12.4a63.07,63.07,0,0,1-16.41-1.92c-5.49-1.23-11.17-2.56-16.83-2-9.59.88-18.88,6.37-22.63,15.5-3.31,8.06-1.36,18.57,5.63,24.11,8.83,7,20.22,4.35,30.56,4.79a26.12,26.12,0,0,1,7.69,1.41,3,3,0,1,0,1.6-5.78Z"/><circle class="cls-2" cx="41" cy="30" r="22"/><circle class="cls-3" cx="100" cy="38" r="19"/><text class="cls-4" transform="translate(31.66 46.77)">?</text><text class="cls-5" transform="translate(94.85 48.7)">?</text><circle class="cls-6" cx="70.5" cy="59.5" r="33.5"/><text class="cls-7" transform="translate(55.74 83.67)">?</text></svg>