<svg id="Layer_1" data-name="Layer 1" xmlns="http://www.w3.org/2000/svg" viewBox="0 0 68 80"><defs><style>.cls-1{fill:none;stroke:#000;stroke-miterlimit:10;stroke-width:2px;}</style></defs><title>Artboard 361x</title><circle class="cls-1" cx="37.84" cy="48.83" r="27.66"/><ellipse class="cls-1" cx="37.59" cy="48.83" rx="16.54" ry="27.66"/><line class="cls-1" x1="13.81" y1="34.87" x2="61.62" y2="34.87"/><line class="cls-1" x1="9.93" y1="48.83" x2="65.5" y2="48.83"/><line class="cls-1" x1="13.81" y1="63.3" x2="61.11" y2="63.3"/><path d="M47.11,19.16l2.33-8L26.17,1.07.84,26.14l9.34,7C15.32,25.1,26.43,13,47.11,19.16Z"/><rect x="0.84" y="26.14" width="1.81" height="15.51"/><ellipse cx="0.84" cy="42.81" rx="1.68" ry="0.78" transform="translate(-41.09 34.13) rotate(-77.18)"/><ellipse cx="1.88" cy="42.81" rx="0.78" ry="1.68" transform="translate(-1.5 0.09) rotate(-2.02)"/><ellipse cx="2.91" cy="42.81" rx="0.78" ry="1.68" transform="translate(-18.5 5.62) rotate(-26.04)"/></svg>