<svg id="Layer_1" data-name="Layer 1" xmlns="http://www.w3.org/2000/svg" viewBox="0 0 24 27"><defs><style>.cls-1{fill:none;stroke:#fff;stroke-miterlimit:10;}.cls-2{fill:#fff;}</style></defs><title>Artboard 251x</title><circle class="cls-1" cx="13.59" cy="16.83" r="9.41"/><ellipse class="cls-1" cx="13.5" cy="16.83" rx="5.63" ry="9.41"/><line class="cls-1" x1="5.41" y1="12.08" x2="21.68" y2="12.08"/><line class="cls-1" x1="4.09" y1="16.83" x2="23" y2="16.83"/><line class="cls-1" x1="5.41" y1="21.76" x2="21.5" y2="21.76"/><path class="cls-2" d="M16.74,6.74,17.53,4,9.62.58,1,9.11l3.18,2.37C5.92,8.76,9.71,4.63,16.74,6.74Z"/><rect class="cls-2" x="1" y="9.11" width="0.62" height="5.28"/><ellipse class="cls-2" cx="1" cy="14.78" rx="0.57" ry="0.26" transform="translate(-13.64 12.48) rotate(-77.18)"/><ellipse class="cls-2" cx="1.35" cy="14.78" rx="0.26" ry="0.57" transform="translate(-0.52 0.06) rotate(-2.02)"/><ellipse class="cls-2" cx="1.7" cy="14.78" rx="0.26" ry="0.57" transform="translate(-6.32 2.25) rotate(-26.04)"/></svg>