<svg id="Layer_1" data-name="Layer 1" xmlns="http://www.w3.org/2000/svg" viewBox="0 0 84 134"><defs><style>.cls-1,.cls-3{fill:#fff;}.cls-2{fill:#0837a0;}.cls-3{font-size:10.3px;font-family:MicrosoftJhengHeiUIBold, Microsoft JhengHei UI;}.cls-4{letter-spacing:-0.01em;}.cls-5{fill:none;stroke:#fff;stroke-miterlimit:10;stroke-width:0.75px;}.cls-5,.cls-6{opacity:0.78;}.cls-6{fill:#f2f2f2;}</style></defs><title>Artboard 351x</title><path d="M77.87,2H6.47A4.64,4.64,0,0,0,1.92,6.72V127.28A4.64,4.64,0,0,0,6.47,132h71.4a4.64,4.64,0,0,0,4.55-4.72V6.72A4.64,4.64,0,0,0,77.87,2Zm1.6,122.62a4.64,4.64,0,0,1-4.55,4.72H9a4.64,4.64,0,0,1-4.55-4.72V11.55A4.64,4.64,0,0,1,9,6.83H74.92a4.64,4.64,0,0,1,4.55,4.72Z"/><circle class="cls-1" cx="12.43" cy="4.26" r="1.2"/><circle class="cls-1" cx="16.02" cy="4.26" r="1.2"/><circle class="cls-1" cx="20.02" cy="4.26" r="1.2"/><rect class="cls-2" x="4.48" y="6.79" width="74.99" height="122.55" rx="4.14"/><text class="cls-3" transform="translate(9.47 22.53)">Migration <tspan class="cls-4" x="52" y="0">t</tspan><tspan x="55.88" y="0">o </tspan><tspan x="0" y="12.36">Canada</tspan></text><line class="cls-5" x1="11.18" y1="43.91" x2="72.64" y2="43.91"/><line class="cls-5" x1="11.18" y1="52.1" x2="72.64" y2="52.1"/><line class="cls-5" x1="11.18" y1="60.28" x2="72.64" y2="60.28"/><line class="cls-5" x1="11.18" y1="68.46" x2="72.64" y2="68.46"/><line class="cls-5" x1="11.18" y1="76.65" x2="72.64" y2="76.65"/><rect class="cls-6" x="10.37" y="83.43" width="62.34" height="38.52" rx="4.11"/></svg>