<svg id="Layer_1" data-name="Layer 1" xmlns="http://www.w3.org/2000/svg" viewBox="0 0 69 36">
<defs>
<style>.cls-1{fill:#242489;}.cls-2{fill:#fff;}.cls-3{fill:#e6e6e6;}</style>
</defs>
<title>Artboard 1 copy 21x</title>
<rect class="cls-1" x="0.34" y="0.47" width="68.68" height="34.8" rx="2.73"/>
<path class="cls-2" d="M14.18,5.27a7.9,7.9,0,1,0,7.9,7.9A7.9,7.9,0,0,0,14.18,5.27Zm0,14.51a6.61,6.61,0,1,1,6.61-6.61A6.61,6.61,0,0,1,14.18,19.78Z"/>
<path class="cls-2" d="M40.91,14.15a6.61,6.61,0,1,1-6.62-7.59l.26-1.28h-.17a7.9,7.9,0,1,0,7.79,9.14Z"/>
<path class="cls-2" d="M54.75,19.78h0a6.61,6.61,0,1,1,6.61-6.61v0h1.29v0a7.9,7.9,0,1,0-7.89,7.89h0Z"/>
<rect class="cls-3" x="7.66" y="24.51" width="9.16" height="2.29"/><rect class="cls-3" x="7.66" y="27.94" width="11.91" height="2.29"/>
<rect class="cls-3" x="28.96" y="24.51" width="9.16" height="2.29"/><rect class="cls-3" x="28.96" y="27.94" width="11.91" height="2.29"/>
<rect class="cls-3" x="48.87" y="24.51" width="9.16" height="2.29"/>
<rect class="cls-3" x="48.87" y="27.94" width="11.91" height="2.29"/></svg>