<svg id="Layer_1" data-name="Layer 1" xmlns="http://www.w3.org/2000/svg" viewBox="0 0 173 147"><defs><style>.cls-1{fill:#08064c;}</style></defs><title>Artboard 1 copy1x</title><rect class="cls-1" x="13.4" y="15.31" width="26.1" height="9.47" rx="4.74"/><rect class="cls-1" x="23.93" y="29.05" width="11.43" height="9.42" rx="4.71"/><rect class="cls-1" x="98.57" y="29.05" width="11.43" height="9.42" rx="4.71"/><rect class="cls-1" x="94.45" y="15.31" width="13.05" height="9.47" rx="4.74"/><rect class="cls-1" x="84.6" y="0.2" width="22.67" height="10.76" rx="5.38"/><rect class="cls-1" x="0.35" y="0.2" width="20.61" height="10.76" rx="5.38"/><rect class="cls-1" x="38.57" y="29.05" width="21.65" height="9.42" rx="4.71"/><rect class="cls-1" x="127.86" y="77.36" width="21.65" height="9.42" rx="4.71" transform="translate(56.61 220.75) rotate(-90)"/><rect class="cls-1" x="63.2" y="29.05" width="32.48" height="9.42" rx="4.71"/><path class="cls-1" d="M117.79,29.05a4.71,4.71,0,0,0-4.71,4.71h0a4.71,4.71,0,0,0,4.71,4.71h0a16.14,16.14,0,0,1,16.14,16.14V63a4.71,4.71,0,0,0,4.71,4.71h0A4.71,4.71,0,0,0,143.35,63V54.61a25.56,25.56,0,0,0-25.56-25.56Z"/><rect class="cls-1" x="45.91" y="15.31" width="44.42" height="9.47" rx="4.74"/><rect class="cls-1" x="130.62" y="88.12" width="44.42" height="9.47" rx="4.74" transform="translate(59.97 245.68) rotate(-90)"/><rect class="cls-1" x="144.44" y="121.7" width="16.79" height="9.47" rx="4.74" transform="translate(26.4 279.26) rotate(-90)"/><rect class="cls-1" x="26.45" y="0.2" width="52.89" height="10.76" rx="5.38"/><rect class="cls-1" x="153.86" y="79.08" width="27.93" height="10.76" rx="5.38" transform="translate(83.37 252.28) rotate(-90)"/><rect class="cls-1" x="145.39" y="118.68" width="44.87" height="10.76" rx="5.38" transform="translate(43.76 291.89) rotate(-90)"/><path class="cls-1" d="M125.7.2a5.38,5.38,0,0,0-5.38,5.38h0A5.38,5.38,0,0,0,125.7,11h0a36.75,36.75,0,0,1,36.74,36.75V62.36a5.38,5.38,0,0,0,5.38,5.38h0a5.38,5.38,0,0,0,5.38-5.38V47.71A47.5,47.5,0,0,0,125.7.2Z"/><path class="cls-1" d="M120,15.31a4.74,4.74,0,0,0-4.74,4.74h0A4.74,4.74,0,0,0,120,24.79h0a28.07,28.07,0,0,1,28.07,28.07V63.39a4.74,4.74,0,0,0,4.74,4.74h0a4.74,4.74,0,0,0,4.73-4.74V52a36.71,36.71,0,0,0-36.71-36.72Z"/></svg>