<svg id="Layer_1" data-name="Layer 1" xmlns="http://www.w3.org/2000/svg" viewBox="0 0 83 111"><defs><style>.cls-1,.cls-25,.cls-27,.cls-3{fill:none;stroke-linecap:round;}.cls-1{stroke:#ff9db6;stroke-width:4px;}.cls-1,.cls-27,.cls-3{stroke-linejoin:round;}.cls-2{fill:#1f1c91;}.cls-3{stroke:#394eb5;}.cls-27,.cls-3{stroke-width:10px;}.cls-4{fill:#9f5f33;}.cls-5{fill:#283d7c;}.cls-6{fill:#be7e52;}.cls-28,.cls-29,.cls-7{fill:#fff;}.cls-8{fill:#ee8417;}.cls-9{fill:#ffcf0b;}.cls-10{fill:#ffaf10;}.cls-11{fill:#ec8316;}.cls-12{fill:#ffd00a;}.cls-13{fill:#da722b;}.cls-14{fill:#ffcf0d;}.cls-15{fill:#f7931e;}.cls-16{fill:#ff7bac;}.cls-17{fill:#3fa9f5;}.cls-18{fill:#e27f9b;}.cls-19{fill:#701287;}.cls-20{fill:#e6e6e6;}.cls-21{fill:#ff9db6;}.cls-22{fill:#7821cc;}.cls-23{fill:#8f4bdd;}.cls-24{fill:#a8355b;}.cls-25{stroke:#e27f9b;stroke-miterlimit:10;stroke-width:0.75px;}.cls-26{fill:#9133a8;}.cls-27{stroke:#5868db;}.cls-28{opacity:0.24;}.cls-29{opacity:0.16;}</style></defs><title>Artboard 11x</title><line class="cls-1" x1="21.64" y1="62.33" x2="18.35" y2="57.68"/><line class="cls-1" x1="22.61" y1="61.07" x2="19.88" y2="54.95"/><line class="cls-1" x1="24.03" y1="60.85" x2="22.06" y2="53.09"/><polyline class="cls-1" points="27.07 60.84 28.4 57.9 28.04 55.93"/><path class="cls-1" d="M26.11,60.41S24.69,53,24.69,53.09"/><ellipse class="cls-2" cx="25.24" cy="63.87" rx="3.93" ry="3.95" transform="translate(-17.28 9.94) rotate(-16.69)"/><polyline class="cls-3" points="51.18 66.71 37.79 87.5 25.78 65.44"/><path class="cls-4" d="M19.24,53H35.94a0,0,0,0,1,0,0v2.2a5.41,5.41,0,0,1-5.41,5.41H24.65a5.41,5.41,0,0,1-5.41-5.41V53A0,0,0,0,1,19.24,53Z" transform="translate(67.12 105.94) rotate(167.13)"/><rect class="cls-5" x="21.56" y="54.53" width="12.01" height="4.62" rx="1.64" transform="translate(67.09 106.12) rotate(167.13)"/><rect class="cls-6" x="18.58" y="60.41" width="21.29" height="7.61" rx="2.71" transform="translate(72 120.32) rotate(167.13)"/><rect class="cls-7" x="24.49" y="55.58" width="5.69" height="0.87" rx="0.31" transform="translate(66.45 104.55) rotate(167.13)"/><rect class="cls-7" x="25.98" y="57.1" width="3.56" height="0.87" rx="0.31" transform="translate(67.62 107.46) rotate(167.13)"/><path class="cls-8" d="M23.07,51.39H30a0,0,0,0,1,0,0v.49a1.2,1.2,0,0,1-1.2,1.2H24.27a1.2,1.2,0,0,1-1.2-1.2v-.49A0,0,0,0,1,23.07,51.39Z" transform="translate(63.99 97.25) rotate(167.13)"/><path class="cls-9" d="M4.41,28c-.4-1.76,1-2,1-2l3.29-.75L8.2,23.13l22.17-5.07.5,2.16L34,19.51a1.48,1.48,0,0,1,1.75,1.09l.15.69C37.54,28.51,32.35,35,32.35,35S22.1,42.86,14,39.16,4.81,29.76,4.41,28Zm27.35,4a16,16,0,0,0,2.59-10.1c-.2-.91-.71-.5-.71-.5l-4.09.94ZM13,36.27l-2.17-9.46s-.05-.26-.74-.11l-3.29.75s-.78,0-.61.74A16.26,16.26,0,0,0,13,36.27Z"/><rect class="cls-10" x="24.29" y="46.86" width="3.14" height="4.6" transform="translate(-10.3 6.99) rotate(-12.87)"/><path class="cls-11" d="M29.38,21.58,32.22,34s1.4,5.39-4.42,9.73A9.65,9.65,0,0,1,20.74,45c-4-.89-6.65-4-7.76-8.82L10.62,25.86Z"/><path class="cls-12" d="M28,43.64a2.67,2.67,0,0,1-.29,2.25C27,47,23.76,47.51,23,47.2a2.46,2.46,0,0,1-1.56-2.1A9,9,0,0,0,28,43.64Z"/><circle class="cls-13" cx="22.34" cy="33.79" r="6.49"/><path class="cls-14" d="M21.06,30.11l-.5,2.09a.45.45,0,0,1-.3.34l-2,.78a.48.48,0,0,0-.08.87L20,35.32a.49.49,0,0,1,.24.39l.12,2.15a.48.48,0,0,0,.8.34l1.64-1.4a.5.5,0,0,1,.44-.1l2.08.55a.49.49,0,0,0,.58-.66l-.83-2a.51.51,0,0,1,0-.45l1.17-1.81a.48.48,0,0,0-.45-.75l-2.14.17a.49.49,0,0,1-.42-.18l-1.36-1.67A.49.49,0,0,0,21.06,30.11Z"/><path class="cls-9" d="M14.19,18.62a22,22,0,0,0-3.95-5c-1-.89-3.26-3-4.44-1.23a1.73,1.73,0,0,0,2,2.54c2-.48,2.08-2.84,1.22-4.31C7.76,8.58,5.29,7.92,3.1,7.4c-.47-.11-.67.61-.2.72,1.89.45,4.06,1,5.26,2.64a2.63,2.63,0,0,1,.36,2.8c-.41.66-1.57,1.1-2.07.28a.93.93,0,0,1,0-1.05,1,1,0,0,1,1.19-.12,7.34,7.34,0,0,1,2.25,1.71A21.33,21.33,0,0,1,13.54,19a.38.38,0,0,0,.65-.38Z"/><path class="cls-15" d="M26.2,16.66c1.14-2.05,2.42-4.09,3.42-6.22a4.88,4.88,0,0,0,.55-2.85,1.89,1.89,0,0,0-1.4-1.65A1.4,1.4,0,0,0,27.3,7.15a2.65,2.65,0,0,0,.49,2.11,3,3,0,0,0,4.13.6,3.85,3.85,0,0,0,.83-5.2.37.37,0,0,0-.64.38,3.06,3.06,0,0,1-1,4.42,2.16,2.16,0,0,1-2.21-.12,2,2,0,0,1-.89-2c.1-.48.48-.89,1-.49a1.7,1.7,0,0,1,.49,1.33,6,6,0,0,1-.94,2.71c-1,1.8-2,3.59-3,5.39-.23.42.42.8.65.37Z"/><path class="cls-16" d="M15.57,15.09a4.22,4.22,0,0,0-4.13-4.93.38.38,0,0,0,0,.75,3.56,3.56,0,0,1,2.6,1.2,3.5,3.5,0,0,1,.81,2.78.39.39,0,0,0,.26.46.37.37,0,0,0,.46-.26Z"/><path class="cls-16" d="M22,17.91l1-5.1c.1-.48-.63-.68-.72-.2l-1,5.1c-.09.47.63.67.72.2Z"/><path class="cls-9" d="M10,20.21a20.19,20.19,0,0,0-6.34-.5c-.48,0-.49.79,0,.75a19.51,19.51,0,0,1,6.14.47c.47.11.67-.61.2-.72Z"/><path class="cls-9" d="M21.08,10.52a11.45,11.45,0,0,1,3.11-4.86c.35-.33-.18-.86-.53-.53a12.25,12.25,0,0,0-3.3,5.19c-.15.46.58.66.72.2Z"/><path class="cls-17" d="M29.46,16.66a11.91,11.91,0,0,0,4.21-4.25A.37.37,0,0,0,33,12a11.35,11.35,0,0,1-4,4,.37.37,0,0,0,.38.64Z"/><path class="cls-17" d="M18.14,19A5,5,0,0,1,17.7,14a4.55,4.55,0,0,1,.6-1,2.62,2.62,0,0,1,.45-.49l.18-.15c.21.75.07,1-.43.85-1.37,0-1.3-3-.6-3.68a.4.4,0,0,1,.37-.25c.36-.16.49.06.37.68-.31.25-.84-.23-1-.44a3,3,0,0,1-.14-2.06c.09-.52.34-1.39,1-1.4.5,0,.63.8.1.78a1,1,0,0,1-.79-.81c-.47-2.11,1.43-4.31,3.24-5,.44-.18.25-.9-.2-.72a6.08,6.08,0,0,0-3.63,3.92c-.35,1.23-.3,3.56,1.53,3.42A1.13,1.13,0,0,0,19,5.4c-1.83-.56-2.38,1.83-2.36,3.14a2.3,2.3,0,0,0,.92,2,1.34,1.34,0,0,0,1.84-.29C20.37,9,18.53,8,17.53,8.83c-1.15.92-1.13,3.56-.21,4.6s3.29.52,2.6-1.11c-.84-2-2.63.68-3,1.59a5.72,5.72,0,0,0,.57,5.5c.28.38.93,0,.65-.38Z"/><path class="cls-2" d="M41.81,56.49H78.5a0,0,0,0,1,0,0V97.4a13.1,13.1,0,0,1-13.1,13.1H54.8a13,13,0,0,1-13-13v-41a0,0,0,0,1,0,0Z" transform="translate(120.31 166.99) rotate(180)"/><path class="cls-18" d="M59.17,54h3.29a4.05,4.05,0,0,1,4.05,4.05V63.2a0,0,0,0,1,0,0H55.12a0,0,0,0,1,0,0V58.07A4.05,4.05,0,0,1,59.17,54Z" transform="translate(121.64 117.22) rotate(180)"/><line class="cls-1" x1="36.72" y1="71" x2="31.58" y2="68.55"/><line class="cls-1" x1="36.95" y1="69.43" x2="31.58" y2="65.42"/><line class="cls-1" x1="38.08" y1="68.54" x2="32.58" y2="62.74"/><polyline class="cls-1" points="40.73 67.05 40.45 63.84 39.18 62.3"/><path class="cls-1" d="M39.68,67.15s-4.87-5.79-4.81-5.69"/><ellipse class="cls-18" cx="48.84" cy="43.32" rx="4.2" ry="3.93"/><circle class="cls-19" cx="49.72" cy="26.66" r="8.79"/><circle class="cls-19" cx="72.98" cy="26.66" r="8.79"/><ellipse class="cls-18" cx="73.63" cy="43.32" rx="4.2" ry="3.93"/><ellipse class="cls-20" cx="53.98" cy="29.17" rx="6.5" ry="5.73"/><ellipse class="cls-20" cx="67.63" cy="29.17" rx="6.5" ry="5.73"/><rect class="cls-21" x="48.41" y="23.49" width="25.33" height="33.91" rx="12.67" transform="translate(122.15 80.9) rotate(180)"/><path class="cls-22" d="M67,41.19h1.24a2,2,0,0,1,2,2v0a1.42,1.42,0,0,1-1.42,1.42H66.38A1.42,1.42,0,0,1,65,43.24v0a2,2,0,0,1,2-2Z"/><path class="cls-22" d="M54.38,41h1.24a2,2,0,0,1,2,2v0a1.42,1.42,0,0,1-1.42,1.42H53.76a1.42,1.42,0,0,1-1.42-1.42v0a2,2,0,0,1,2-2Z"/><rect class="cls-23" x="65.17" y="38.4" width="5.24" height="2.07" rx="0.74" transform="translate(128.66 88.9) rotate(-171.09)"/><rect class="cls-23" x="52.39" y="38.51" width="5.24" height="2.07" rx="0.74" transform="translate(116.91 67.1) rotate(168.28)"/><path class="cls-24" d="M60.85,48.89h.34a2.67,2.67,0,0,1,2.67,2.67v0a.06.06,0,0,1-.06.06H58.24a.06.06,0,0,1-.06-.06v0a2.67,2.67,0,0,1,2.67-2.67Z" transform="translate(122.04 100.5) rotate(-180)"/><path class="cls-25" d="M61.13,44.74s-1.42,2.51,0,2.94"/><path class="cls-26" d="M48.71,33.26a12.64,12.64,0,0,1,12.34-9.87h.05a12.53,12.53,0,0,1,6.38,1.72,4.28,4.28,0,0,1,.2,1.28c0,4.1-6.16,7.42-13.76,7.42A24,24,0,0,1,48.71,33.26Z"/><path class="cls-26" d="M73.47,33.43a5.12,5.12,0,0,1-2,.38,5.24,5.24,0,0,1-5.24-5.24,5.18,5.18,0,0,1,1.28-3.42A12.63,12.63,0,0,1,73.47,33.43Z"/><polyline class="cls-27" points="72.41 70.46 60.51 90.34 39.76 70.9"/><path class="cls-28" d="M70.29,27.46s5.66,17.6-3,28.31c.43,0,6.93-4,6.41-12.13C73.74,43.64,75.33,30.28,70.29,27.46Z"/><path class="cls-29" d="M66.52,56.61s5.89,11.8,5.89,53.17h6.12V75.87S79.08,61.44,66.52,56.61Z"/></svg>