<svg id="Layer_1" data-name="Layer 1" xmlns="http://www.w3.org/2000/svg" viewBox="0 0 120 115"><defs><style>.cls-1,.cls-4{fill:#fff;}.cls-1{opacity:0.27;}.cls-2{fill:#ccc;}.cls-3{fill:#160760;}.cls-5{fill:#130447;}.cls-6{fill:#c1272d;}.cls-7{fill:#871720;}.cls-8{fill:#8e27c4;}.cls-9{fill:#ff9db6;}.cls-10{fill:#5e5ebf;}.cls-11{fill:#1b1464;}.cls-12{fill:#db71ce;}.cls-13{fill:#7821cc;}.cls-14{fill:#723b3b;}.cls-15{fill:#8f4bdd;}.cls-16{fill:#1f1c91;}.cls-17{fill:none;stroke:#5868db;stroke-linecap:round;stroke-linejoin:round;stroke-width:12px;}</style></defs><title>Artboard 231x</title><ellipse class="cls-1" cx="60.37" cy="100.79" rx="58.63" ry="10.73"/><path class="cls-2" d="M94.56,98.14h.72a4.88,4.88,0,0,1,4.88,4.88v0a0,0,0,0,1,0,0H89.68a0,0,0,0,1,0,0v0a4.88,4.88,0,0,1,4.88-4.88Z" transform="translate(189.83 201.16) rotate(180)"/><path class="cls-3" d="M63.7,83.6,38.94,87.31l-1.65-8.62,23.88-3.58a.89.89,0,0,1,1,.65Z"/><path class="cls-3" d="M90.07,101.63,55.71,81.85l5.06-6.4a1,1,0,0,1,1.32-.14l32,24.27Z"/><polygon class="cls-4" points="60.17 45.62 61.6 44.74 69.95 46.78 71.89 44.64 72.91 44.96 66.49 54.11 60.17 45.62"/><path class="cls-5" d="M6.51,80.35l14.1-2.26,1.31,8.22,39.75-5.83v0L104.13,96.7l-.54,6.14L65.88,95.36a7.49,7.49,0,0,0-4.24.4c-8.79,3.54-18.63,6.58-25.27,7.08l-9.58.18c-9.46-.71-17.37-5.2-18.88-14.29H7.85Z"/><rect class="cls-6" x="57.35" y="46.54" width="11.75" height="15.72" transform="translate(112.43 121.75) rotate(-166.87)"/><polygon class="cls-7" points="67.12 63.37 69.95 59.4 73.21 44.54 70.69 48.06 67.12 63.37"/><path class="cls-8" d="M17.17,17.46H28.73A14,14,0,0,1,31.51,14L25.22,9.8,27.4,6.52a2.74,2.74,0,0,1,3.8-.76l9.51,6.32a10.42,10.42,0,0,1,3.5,2.33l.42.28-.06.09c2.76,3,4.54,7.62,4.54,12.89A20.29,20.29,0,0,1,46.22,38.4v9a8.4,8.4,0,0,1-8.4,8.4H34.41A25.06,25.06,0,0,1,9.35,30.71V25.27A7.81,7.81,0,0,1,17.17,17.46Z"/><rect class="cls-9" x="19.8" y="33.62" width="8.42" height="5.78" transform="translate(32.37 79.4) rotate(-157.7)"/><polygon class="cls-10" points="40.43 83.92 29.28 85.61 24.06 56.2 33.6 54.51 40.43 83.92"/><path class="cls-11" d="M7.92,46.22H33a0,0,0,0,1,0,0V86.11a0,0,0,0,1,0,0h0A25.08,25.08,0,0,1,7.92,61V46.22a0,0,0,0,1,0,0Z" transform="translate(34.11 134.06) rotate(-174.18)"/><path class="cls-9" d="M30.9,37.6h0a6.92,6.92,0,0,0,6.93-6.92L39.45,21a5.31,5.31,0,0,0-1.61-4.81,11.15,11.15,0,0,0-7.15-2.59H26.31a6.92,6.92,0,0,0-6.93,6.92v5.6A11.51,11.51,0,0,0,30.9,37.6Z"/><polygon class="cls-9" points="37.36 31.43 39.53 31.37 38.26 28.12 37.36 31.43"/><path class="cls-9" d="M18.41,27.3h0a1.7,1.7,0,0,0,1.69-1.7V21.27a.65.65,0,0,0-.64-.65h0a3.87,3.87,0,0,0-3.87,3.87h0A2.81,2.81,0,0,0,18.41,27.3Z"/><path class="cls-12" d="M30.86,37.51s-9.41-7.25-7.78-23.14c0,0-3.43,1.1-3.79,6.16.25-.18-4.88.54-3.48,5.06A2.65,2.65,0,0,0,19.42,27C19.11,28.84,22,37.88,30.86,37.51Z"/><path class="cls-13" d="M31,24.2H33.9a.63.63,0,0,1,.63.63v0a2.08,2.08,0,0,1-2.08,2.08h0a2.08,2.08,0,0,1-2.08-2.08v0A.63.63,0,0,1,31,24.2Z" transform="translate(58.22 57.83) rotate(-166.87)"/><path class="cls-14" d="M35.5,32.83a5.11,5.11,0,0,1-2-.54s-.65-.33-.86.32.52.84.52.84,2.74,1.08,3,0A.5.5,0,0,0,35.5,32.83Z"/><rect class="cls-15" x="31.76" y="22.52" width="3.43" height="1.08" rx="0.54" transform="translate(64.44 49.39) rotate(-174.18)"/><circle class="cls-8" cx="25.26" cy="14.74" r="10.84"/><path class="cls-9" d="M57.24,67.33s1.27,1.81,5.24,1.08c2-.9,7.91-8.9,3.71-8.76-4,.13-4.16.72-7-.72s-4.52,1.8-4.52,1.8S58.6,62.18,57.24,67.33Z"/><path class="cls-16" d="M6.91,77.64l22.41,6.53,3.25-25.24c0-12.11-2.41-15.38-11-18.4h0a11.91,11.91,0,0,0-15.17,7.3L2.4,66.51C.8,71.06,2.36,76,6.91,77.64Z"/><path class="cls-16" d="M54.71,69.32s4.88-2,3.61-5.42A4.8,4.8,0,0,0,51.82,61Z"/><path class="cls-4" d="M10.92,41.78s2.59-7,11.26-3.72S36.64,44.92,33.93,55.4C33.93,55.4,27.93,34.93,10.92,41.78Z"/><polyline class="cls-17" points="18.93 49.62 27.97 72.57 50.19 66.25"/><path class="cls-2" d="M103.59,103H109a2.39,2.39,0,0,0,2.39-2.4V92.94A2.93,2.93,0,0,0,108.43,90h0a4.3,4.3,0,0,0-4.3,4.29v2.4Z"/></svg>