<svg id="Layer_1" data-name="Layer 1" xmlns="http://www.w3.org/2000/svg" viewBox="0 0 44 34"><defs><style>.cls-1{fill:#fff;}.cls-2{fill:#666;}</style></defs><title>Artboard 19 copy 21x</title><path class="cls-1" d="M31.19,17.9V12.79h-4A11.49,11.49,0,0,0,25.54,9l2.88-2.88L24.8,2.46,21.86,5.4A10.94,10.94,0,0,0,18.3,4.05V.24H13.2v4a11.33,11.33,0,0,0-2.71,1.19L7.42,2.4,3.81,6l3,3a11.81,11.81,0,0,0-1.54,3.73H.75V17.9H5.31a11.53,11.53,0,0,0,1.09,3L3.31,24l3.61,3.61,2.84-2.84a11,11,0,0,0,3.44,1.69V29.9h5.1V26.65a11.08,11.08,0,0,0,4.23-1.79l2.77,2.76L28.92,24l-3-3a11.8,11.8,0,0,0,1.2-3.16Zm-15.3,4.25A7.08,7.08,0,1,1,23,15.07,7.08,7.08,0,0,1,15.89,22.15Z"/><circle class="cls-1" cx="32.1" cy="23.02" r="10.98"/><path class="cls-2" d="M32.11,13.71A9.24,9.24,0,1,0,41.35,23,9.24,9.24,0,0,0,32.11,13.71Zm0,16.86A7.58,7.58,0,1,1,39.69,23,7.58,7.58,0,0,1,32.11,30.57Z"/><circle class="cls-2" cx="32.11" cy="22.91" r="1.51"/><path class="cls-2" d="M32,16.8h.17a.76.76,0,0,1,.76.76v4.28a0,0,0,0,1,0,0H31.24a0,0,0,0,1,0,0V17.56A.76.76,0,0,1,32,16.8Z"/><path class="cls-2" d="M28.68,20.45h.17a.76.76,0,0,1,.76.76v4.28a0,0,0,0,1,0,0H27.91a0,0,0,0,1,0,0V21.21A.76.76,0,0,1,28.68,20.45Z" transform="translate(5.79 51.73) rotate(-90)"/></svg>