<svg id="Layer_1" data-name="Layer 1" xmlns="http://www.w3.org/2000/svg" viewBox="0 0 34 36"><defs><style>.cls-1{fill:#fff;}</style></defs><title>Artboard 19 copy 31x</title><path class="cls-1" d="M24.64,13a6.4,6.4,0,0,0-3.47-2.22v-.23a3.12,3.12,0,1,0-2,0v.29a5.9,5.9,0,0,0-3.7,2.54s-.58.81.12.81H25S25.68,14.12,24.64,13Z"/><path class="cls-1" d="M10.47,12,9.07,9.24a.55.55,0,0,1,.53-.78h3.25a.55.55,0,0,1,.54.76L12.13,12A.94.94,0,0,1,10.47,12Z"/><path class="cls-1" d="M28.28,8.45,27,11a.51.51,0,0,0,.49.72h3a.51.51,0,0,0,.5-.7L29.83,8.48A.88.88,0,0,0,28.28,8.45Z"/><path class="cls-1" d="M10.88,8.46a8.89,8.89,0,0,1,4.69-6.64C20-.61,25.16.89,27.24,3.67s1,2.89.58,2.31-2.43-4.16-6.59-4.51-8.2,1.73-9.59,7Z"/><path class="cls-1" d="M29.38,11.75a8.94,8.94,0,0,1-4.72,6.65c-4.41,2.42-9.63.92-11.72-1.85s-1-2.89-.58-2.31S14.8,18.4,19,18.74s8.24-1.73,9.64-7Z"/><polygon class="cls-1" points="3.38 22.9 3.38 34.69 7.08 33.42 7.08 21.63 3.38 22.9"/><path class="cls-1" d="M8,23v8.2s3.06-1.67,7.34.29,9.36-2.19,17.1-5.43c0,0,1.27-.46.69-1.39s-3.7.24-3.7.24L22,26.66a1.9,1.9,0,0,1-1.73,1H14.65s-.81.11-.81-.58a.34.34,0,0,1,.34-.35h6a1.15,1.15,0,0,0,1.27-1.27s0-1.15-.92-1.15H16a17.68,17.68,0,0,1-4-1.27A4.46,4.46,0,0,0,8,23Z"/></svg>