<svg id="Layer_1" data-name="Layer 1" xmlns="http://www.w3.org/2000/svg" viewBox="0 0 41 34"><defs><style>.cls-1{fill:#fff;}.cls-2{font-size:8.11px;font-family:MyriadPro-Regular, Myriad Pro;}</style></defs><title>Artboard 19 copy1x</title><circle class="cls-1" cx="5.42" cy="10.39" r="4.62"/><circle class="cls-1" cx="35.91" cy="23.32" r="4.62"/><path class="cls-1" d="M7.51,6.26A16.42,16.42,0,0,1,20.77,0c8.6.28,15.57,6.61,16.49,13.5l.75-1s.28-.57.71-.14c0,0,.28.36-.14.85l-1,1.35a.67.67,0,0,1-1,.15l-1.28-1.07s-.71-.5-.36-.85,1.64.85,1.64.85S34.81,1.39,20.74.61A16.84,16.84,0,0,0,8.22,6.71Z"/><path class="cls-1" d="M33.74,27.41a15.56,15.56,0,0,1-13,6.25,16.8,16.8,0,0,1-16.49-14l-.74,1s-.29.57-.71.14c0,0-.29-.36.14-.85l1-1.35a.68.68,0,0,1,1-.15l1.28,1.07s.71.5.35.85S5,19.49,5,19.49a16.38,16.38,0,0,0,15.85,13.6,16.4,16.4,0,0,0,12.5-6Z"/><path class="cls-1" d="M30.48,18.56V15.22H27.85a7.88,7.88,0,0,0-1.06-2.51l1.87-1.87L26.31,8.48,24.39,10.4a7.24,7.24,0,0,0-2.32-.88V7H18.73V9.67a6.79,6.79,0,0,0-1.76.78l-2-2L12.6,10.8l2,2a7.58,7.58,0,0,0-1,2.43h-3v3.34h3a8,8,0,0,0,.72,1.93l-2,2,2.35,2.36L16.49,23a7.54,7.54,0,0,0,2.24,1.1v2.27h3.34V24.27a7.37,7.37,0,0,0,2.76-1.17l1.8,1.8L29,22.55l-1.93-1.93a7.78,7.78,0,0,0,.79-2.06Zm-10,2.77a4.62,4.62,0,1,1,4.62-4.62A4.62,4.62,0,0,1,20.49,21.33Z"/><text class="cls-2" transform="translate(33.88 25.91)">$</text><text class="cls-2" transform="translate(3.32 12.98)">$</text></svg>