<svg id="Layer_1" data-name="Layer 1" xmlns="http://www.w3.org/2000/svg" viewBox="0 0 21 21"><defs><style>.cls-1{fill:#fff;}</style></defs><title>Artboard 301x</title><circle class="cls-1" cx="3.19" cy="2.96" r="2.82"/><rect class="cls-1" x="1.24" y="6.64" width="4.33" height="13.44" rx="2.17"/><path class="cls-1" d="M20.31,12.71c0-5.63-3-6.07-5.2-6.07a4.6,4.6,0,0,0-3.47,1.92V7.63a1,1,0,0,0-1-1H8.29a1,1,0,0,0-1,1V19.09a1,1,0,0,0,1,1h2.37a1,1,0,0,0,1-1V13.53c0-.94.33-2.88,1.95-3.2C15.76,9.89,16,12.71,16,12.71h0a.49.49,0,0,0,0,.12v6.26a1,1,0,0,0,1,1h2.36a1,1,0,0,0,1-1V12.83s0-.08,0-.12Z"/></svg>