<svg id="Layer_1" data-name="Layer 1" xmlns="http://www.w3.org/2000/svg" viewBox="0 0 43 49"><defs>
<style>.cls-1{fill:#4646b2;}.cls-2{fill:#f2f2f2;opacity:0.09;}.cls-3{fill:#242489;}.cls-4{fill:#35359e;}</style>


</defs><title>Artboard 311x</title>
<circle class="cls-1" cx="13.84" cy="13.56" r="12.19"/><path class="cls-2" d="M13.84,1.43a12.55,12.55,0,0,0-2.22.2,19.31,19.31,0,0,1,8,9.87,19.4,19.4,0,0,1,.55,12.57A12.19,12.19,0,0,0,13.84,1.43Z"/>
<circle class="cls-3" cx="16.08" cy="32.07" r="15.2"/><path class="cls-2" d="M16.08,16.88A15.17,15.17,0,0,0,9.86,18.2,16.14,16.14,0,0,1,12.18,18,15.19,15.19,0,0,1,18.4,47.09a15.19,15.19,0,0,0-2.32-30.21Z"/>
<circle class="cls-4" cx="31.31" cy="36.45" r="10.69"/><path class="cls-2" d="M29.13,26.65c6.19,0,11.21,5.37,11.21,12a12.76,12.76,0,0,1-.78,4.4A10.69,10.69,0,0,0,25.43,27.32,10.42,10.42,0,0,1,29.13,26.65Z"/>
</svg>