<svg id="Layer_1" data-name="Layer 1" xmlns="http://www.w3.org/2000/svg" viewBox="0 0 126 132"><defs><style>.cls-1,.cls-17,.cls-26,.cls-8{fill:none;}.cls-1{stroke:#ff9db6;stroke-width:2px;}.cls-1,.cls-26,.cls-8{stroke-linecap:round;stroke-linejoin:round;}.cls-2{fill:#754c24;}.cls-3{fill:#8c6239;}.cls-4{fill:#603813;}.cls-5{fill:#160760;}.cls-6{fill:#130447;}.cls-7{fill:#5e5ebf;}.cls-8{stroke:#4155b7;}.cls-26,.cls-8{stroke-width:10px;}.cls-9{fill:#1b1464;}.cls-10{fill:#e6e6e6;}.cls-11{fill:#8e27c4;}.cls-12{fill:#fff;}.cls-13{fill:#1f1c91;}.cls-14{fill:#f2f2f2;}.cls-15{fill:#e23b4b;}.cls-16{fill:#c1272d;}.cls-17{stroke:#666;stroke-miterlimit:10;stroke-width:0.5px;}.cls-18{fill:#b3b3b3;}.cls-19{fill:#ff9db6;}.cls-20{fill:#db71ce;}.cls-21{fill:#7821cc;}.cls-22{fill:#723b3b;}.cls-23{fill:#8f4bdd;}.cls-24{fill:#edcaa6;}.cls-25{fill:#f7dcc4;}.cls-26{stroke:#5868db;}</style></defs><title>Artboard 331x</title><line class="cls-1" x1="72.17" y1="50.85" x2="75.49" y2="49.6"/><line class="cls-1" x1="72.78" y1="51.63" x2="76.9" y2="50.95"/><line class="cls-1" x1="72.69" y1="52.52" x2="77.67" y2="52.56"/><polyline class="cls-1" points="72.21 54.35 73.77 55.62 75.02 55.72"/><path class="cls-1" d="M72.62,53.84s4.7.32,4.64.3"/><rect class="cls-2" x="49.57" y="76.74" width="4.88" height="32.43"/><rect class="cls-2" x="8" y="89.77" width="4.88" height="32.43"/><rect class="cls-2" x="39.93" y="89.42" width="4.88" height="32.43"/><polygon class="cls-3" points="14.73 118.83 12.87 122.19 12.87 93.11 15.14 90.32 14.73 118.83"/><polygon class="cls-3" points="46.66 118.59 44.81 121.96 44.81 92.87 47.07 90.09 46.66 118.59"/><polygon class="cls-3" points="56.3 105.7 54.44 109.07 54.44 79.99 56.71 77.2 56.3 105.7"/><polygon class="cls-3" points="30.52 105.36 28.67 108.72 28.67 79.64 30.93 76.85 30.52 105.36"/><rect class="cls-2" x="23.79" y="75.98" width="4.88" height="32.43"/><polygon class="cls-2" points="44.81 87.24 10.44 87.24 26.23 74.59 57.06 74.76 44.81 87.24"/><polygon class="cls-3" points="25.3 21.99 26.17 75.22 10.9 87.01 10.9 30.58 25.3 21.99"/><path class="cls-4" d="M10.9,87.13V30.58H5V90a3.09,3.09,0,0,0,3.09,3.09H44.81V87.13Z"/><polygon class="cls-2" points="25.24 22.05 10.96 30.64 5.32 30.52 21.43 21.02 25.24 22.05"/><polygon class="cls-4" points="44.81 87.13 44.81 93.05 56.77 79.93 56.99 74.69 44.81 87.13"/><polygon class="cls-3" points="70.05 95.61 68.2 97.92 68.2 63.47 69.86 60.77 70.05 95.61"/><rect class="cls-2" x="63.27" y="53.8" width="4.88" height="44.2"/><rect class="cls-5" x="36" y="65" width="24" height="11.23"/><path class="cls-5" d="M62.64,114.65l-7.07-50h7.9a3.78,3.78,0,0,1,3.78,3.78l2.17,46.14Z"/><path class="cls-6" d="M49,114.53,52.45,69h7.9a3.78,3.78,0,0,1,3.78,3.78l-8.88,41.8Z"/><path class="cls-6" d="M60.49,68.93l-27.2.13L32.14,62.2,20.86,64.08l1.33,8h0c1.34,6.71,9,10.64,17.66,10.33,9,.07,11.77.08,20.32-1.73Z"/><polygon class="cls-7" points="48.19 67.13 39.18 68.49 34.96 44.73 42.66 43.37 48.19 67.13"/><polyline class="cls-8" points="38.02 37.45 51.6 57.98 70.64 54.96"/><path class="cls-9" d="M21.93,36.68H42.18a0,0,0,0,1,0,0V68.9a0,0,0,0,1,0,0h0A20.26,20.26,0,0,1,21.93,48.64v-12A0,0,0,0,1,21.93,36.68Z" transform="translate(58.59 108.55) rotate(-174.18)"/><path class="cls-10" d="M49,114.53h7.8a4.62,4.62,0,0,1,4.62,4.62v0a1.09,1.09,0,0,1-1.09,1.09H51.91A2.92,2.92,0,0,1,49,117.32v-2.79a0,0,0,0,1,0,0Z"/><rect class="cls-4" x="113.31" y="59.14" width="4.88" height="44.2"/><path class="cls-10" d="M62.45,114.53h7.8a4.62,4.62,0,0,1,4.62,4.62v0a1.09,1.09,0,0,1-1.09,1.09H65.38a2.92,2.92,0,0,1-2.92-2.92v-2.79a0,0,0,0,1,0,0Z"/><polygon class="cls-3" points="108.85 74.29 49.4 74.29 63.34 53.74 120 53.74 108.85 74.29"/><rect class="cls-2" x="49.45" y="79.73" width="4.88" height="44.2"/><rect class="cls-2" x="103.91" y="79.44" width="4.88" height="44.2"/><polygon class="cls-3" points="56.24 121.03 54.38 123.93 54.38 80.78 56.64 77.99 56.24 121.03"/><path class="cls-11" d="M29.39,13.44h9.35A11.22,11.22,0,0,1,41,10.64L35.9,7.26l1.76-2.65A2.21,2.21,0,0,1,40.73,4L48.41,9.1A8.44,8.44,0,0,1,51.24,11l.33.22,0,.07A15.39,15.39,0,0,1,55.2,21.69a16.44,16.44,0,0,1-2.34,8.67V37.6a6.79,6.79,0,0,1-6.78,6.79H43.32A20.24,20.24,0,0,1,23.08,24.15v-4.4A6.31,6.31,0,0,1,29.39,13.44Z"/><rect class="cls-4" x="49.4" y="74.29" width="59.33" height="6.5"/><path class="cls-12" d="M24.34,33.09s2.1-5.64,9.11-3,11.67,5.55,9.48,14C42.93,44.09,38.09,27.55,24.34,33.09Z"/><path class="cls-13" d="M21.11,62.06l18.1,5.27,2.63-20.39c0-9.78-2-12.42-8.93-14.86h0A9.62,9.62,0,0,0,20.65,38L17.46,53.06C16.17,56.74,17.43,60.77,21.11,62.06Z"/><polygon class="cls-3" points="119.98 100.13 118.12 103.03 118.12 59.88 119.79 56.49 119.98 100.13"/><polygon class="cls-2" points="119.94 59.95 108.67 80.85 108.67 74.35 120 53.74 119.94 59.95"/><polygon class="cls-3" points="110.58 121.03 108.72 123.93 108.72 80.78 110.39 77.39 110.58 121.03"/><polygon class="cls-10" points="84.15 70.47 62.45 70.47 66.58 63.33 86.76 63.33 84.15 70.47"/><polygon class="cls-14" points="86.76 63.33 66.58 63.33 67.67 56.19 87.72 56.19 86.76 63.33"/><polygon class="cls-15" points="88 56.46 87.04 63.46 86.76 63.33 87.72 56.19 88 56.46"/><rect class="cls-16" x="62.45" y="70.47" width="21.7" height="1.1"/><polygon class="cls-15" points="86.76 64.29 84.15 71.57 84.15 70.46 86.77 63.33 87.04 63.46 86.76 64.29"/><line class="cls-17" x1="84.98" y1="64.01" x2="82.92" y2="69.37"/><line class="cls-17" x1="83.19" y1="64.01" x2="81.13" y2="69.37"/><line class="cls-17" x1="81.41" y1="64.01" x2="79.35" y2="69.37"/><line class="cls-17" x1="86.15" y1="56.8" x2="85.6" y2="61.75"/><line class="cls-17" x1="84.36" y1="56.8" x2="83.81" y2="61.75"/><line class="cls-17" x1="82.57" y1="56.8" x2="82.03" y2="61.75"/><line class="cls-17" x1="80.79" y1="56.8" x2="80.24" y2="61.75"/><line class="cls-17" x1="79" y1="56.8" x2="78.45" y2="61.75"/><line class="cls-17" x1="77.22" y1="56.8" x2="76.67" y2="61.75"/><polygon class="cls-18" points="74.61 61.88 68.84 61.88 69.6 56.94 75.19 56.91 74.61 61.88"/><rect class="cls-19" x="31.52" y="26.5" width="6.81" height="4.67" transform="translate(56.29 68.76) rotate(-157.7)"/><line class="cls-1" x1="67" y1="66.34" x2="69.79" y2="66.91"/><line class="cls-1" x1="67.58" y1="65.37" x2="71.42" y2="65.46"/><path class="cls-19" d="M40.49,29.71h0a5.59,5.59,0,0,0,5.59-5.59l1.32-7.84a4.31,4.31,0,0,0-1.3-3.89,9,9,0,0,0-5.78-2.09H36.78a5.6,5.6,0,0,0-5.6,5.59v4.53A9.3,9.3,0,0,0,40.49,29.71Z"/><polygon class="cls-19" points="45.71 24.72 47.46 24.68 46.43 22.05 45.71 24.72"/><path class="cls-19" d="M30.39,21.39h0A1.37,1.37,0,0,0,31.77,20v-3.5a.53.53,0,0,0-.53-.53h0a3.13,3.13,0,0,0-3.12,3.13h0A2.27,2.27,0,0,0,30.39,21.39Z"/><path class="cls-20" d="M40.45,29.64s-7.6-5.86-6.28-18.7c0,0-2.77.89-3.06,5,.2-.14-3.94.44-2.81,4.09a2.12,2.12,0,0,0,2.91,1.11C31,22.63,33.3,29.93,40.45,29.64Z"/><path class="cls-21" d="M40.55,18.89h2.35a.51.51,0,0,1,.51.51v0a1.68,1.68,0,0,1-1.68,1.68h0A1.68,1.68,0,0,1,40,19.4v0a.51.51,0,0,1,.51-.51Z" transform="translate(77.83 48.93) rotate(-166.87)"/><path class="cls-22" d="M44.21,25.86a4,4,0,0,1-1.65-.44s-.53-.26-.7.26.42.68.42.68,2.21.87,2.42,0A.4.4,0,0,0,44.21,25.86Z"/><rect class="cls-23" x="41.18" y="17.53" width="2.77" height="0.88" rx="0.44" transform="translate(83.1 40.15) rotate(-174.18)"/><circle class="cls-11" cx="35.93" cy="11.25" r="8.76"/><ellipse class="cls-11" cx="47.23" cy="12.9" rx="3.65" ry="3.1"/><line class="cls-1" x1="67.37" y1="64.38" x2="71.35" y2="63.63"/><path class="cls-1" d="M67.12,62.89l3-.55"/><rect class="cls-24" x="69.53" y="58.34" width="1.55" height="8.82" transform="translate(-11.32 15.67) rotate(-11.77)"/><polygon class="cls-25" points="71.63 68.57 70.45 67.23 71.98 66.81 71.63 68.57"/><polygon points="71.74 68.01 71.29 68.19 71.63 68.55 71.74 68.01"/><circle class="cls-19" cx="70.68" cy="62.29" r="0.75"/><polyline class="cls-1" points="66.58 62.36 69.27 60.37 70.64 60.61"/><circle class="cls-19" cx="70.46" cy="60.67" r="0.93"/><polyline class="cls-26" points="30.82 39.42 44.4 62.69 63.44 63.96"/><circle class="cls-19" cx="71.17" cy="63.66" r="0.75"/><circle class="cls-19" cx="71.25" cy="65.43" r="0.75"/></svg>