<svg id="Layer_1" data-name="Layer 1" xmlns="http://www.w3.org/2000/svg" viewBox="0 0 188 189"><defs><style>.cls-1{fill:#33342f;}.cls-2{fill:#fff;}.cls-3{fill:#603813;}.cls-4{fill:#a05212;}.cls-5{fill:#754c24;}.cls-6{fill:#8c6239;}.cls-14,.cls-16,.cls-17,.cls-7{fill:none;stroke-linecap:round;}.cls-7{stroke:#ff9db6;stroke-width:3px;}.cls-16,.cls-17,.cls-7{stroke-linejoin:round;}.cls-8{fill:#1f1c91;}.cls-9{fill:#e27f9b;}.cls-10{fill:#ff9db6;}.cls-11{fill:#7821cc;}.cls-12{fill:#8f4bdd;}.cls-13{fill:#a8355b;}.cls-14{stroke:#e27f9b;stroke-miterlimit:10;}.cls-15{fill:#9133a8;}.cls-16{stroke:#5868db;}.cls-16,.cls-17{stroke-width:13px;}.cls-17{stroke:#394eb5;}.cls-18{fill:#ccc;}.cls-19{fill:#e6e6e6;}.cls-20{fill:#999;}.cls-21{fill:#10106b;}.cls-22{fill:#14147f;}</style></defs><title>Artboard 341x</title><polygon class="cls-1" points="32.51 112.38 32.51 118.97 60.43 118.97 60.43 112.38 53.88 102 53.88 97.82 47.99 97.82 47.99 100.57 45.06 100.57 45.06 97.8 39.17 97.8 39.17 101.8 32.51 112.38"/><path class="cls-2" d="M46.43,104.24a5.81,5.81,0,1,0,5.8,5.81A5.81,5.81,0,0,0,46.43,104.24Zm.09,9.23a3.54,3.54,0,1,1,3.53-3.53A3.53,3.53,0,0,1,46.52,113.47Z"/><rect class="cls-3" x="13.09" y="128.75" width="9.8" height="50.9"/><rect class="cls-4" x="8.04" y="128.75" width="9.8" height="50.9"/><rect class="cls-3" x="91.5" y="132.23" width="61.33" height="7.27"/><path class="cls-5" d="M128.48,53.83h0a24.34,24.34,0,0,1,24.34,24.34v54.06a0,0,0,0,1,0,0H104.14a0,0,0,0,1,0,0V78.17a24.34,24.34,0,0,1,24.34-24.34Z"/><rect class="cls-6" x="88.97" y="132.23" width="61.33" height="7.27"/><rect class="cls-5" x="119.63" y="139.5" width="8.85" height="27.19"/><path class="cls-5" d="M114.57,162.9h19.28a6.64,6.64,0,0,1,6.64,6.64v0a0,0,0,0,1,0,0H107.93a0,0,0,0,1,0,0v0A6.64,6.64,0,0,1,114.57,162.9Z"/><polyline class="cls-7" points="99.75 46.97 99.83 42.87 101.31 40.8"/><path class="cls-8" d="M103.54,55.2h46.66a0,0,0,0,1,0,0v45.25a23.42,23.42,0,0,1-23.42,23.42h0a23.23,23.23,0,0,1-23.23-23.23V55.2a0,0,0,0,1,0,0Z" transform="translate(253.73 179.07) rotate(180)"/><path class="cls-9" d="M127.71,52.06h0A7.24,7.24,0,0,1,135,59.3v4.43a0,0,0,0,1,0,0H120.47a0,0,0,0,1,0,0V59.3A7.24,7.24,0,0,1,127.71,52.06Z" transform="translate(255.42 115.78) rotate(180)"/><line class="cls-7" x1="141.97" y1="118.13" x2="138.86" y2="124.66"/><line class="cls-7" x1="139.97" y1="117.83" x2="134.88" y2="124.66"/><line class="cls-7" x1="138.84" y1="116.4" x2="131.46" y2="123.39"/><polyline class="cls-7" points="136.95 113.03 132.86 113.38 130.9 115"/><path class="cls-7" d="M137.07,114.36s-7.36,6.19-7.24,6.12"/><ellipse class="cls-9" cx="112.48" cy="38.45" rx="5.35" ry="5"/><ellipse class="cls-9" cx="144" cy="38.45" rx="5.35" ry="5"/><rect class="cls-10" x="111.93" y="13.25" width="32.21" height="43.12" rx="16.11" transform="translate(256.06 69.61) rotate(-180)"/><path class="cls-11" d="M135.74,35.75H137a2.76,2.76,0,0,1,2.76,2.76v0a1.65,1.65,0,0,1-1.65,1.65h-3.49A1.65,1.65,0,0,1,133,38.51v0A2.76,2.76,0,0,1,135.74,35.75Z"/><path class="cls-11" d="M119.68,35.53h1.26a2.76,2.76,0,0,1,2.76,2.76v0a1.65,1.65,0,0,1-1.65,1.65h-3.49a1.65,1.65,0,0,1-1.65-1.65v0A2.76,2.76,0,0,1,119.68,35.53Z"/><rect class="cls-12" x="133.24" y="32.2" width="6.67" height="2.64" rx="1.32" transform="translate(266.31 87.78) rotate(-171.09)"/><rect class="cls-12" x="116.99" y="32.34" width="6.67" height="2.64" rx="1.32" transform="translate(244.98 42.18) rotate(168.28)"/><path class="cls-13" d="M127.71,45.53h.5a3.36,3.36,0,0,1,3.36,3.36v0a.11.11,0,0,1-.11.11h-7a.11.11,0,0,1-.11-.11v0a3.36,3.36,0,0,1,3.36-3.36Z" transform="translate(255.93 94.53) rotate(-180)"/><path class="cls-14" d="M128.1,40.25s-1.8,3.2,0,3.75"/><path class="cls-5" d="M112.31,25.67A16.08,16.08,0,0,1,128,13.11h.07a16.06,16.06,0,0,1,8.11,2.19,5.28,5.28,0,0,1,.25,1.63c0,5.21-7.83,9.44-17.49,9.44A31,31,0,0,1,112.31,25.67Z"/><path class="cls-15" d="M143.8,25.88a6.66,6.66,0,0,1-9.17-6.18,6.62,6.62,0,0,1,1.62-4.35A16.08,16.08,0,0,1,143.8,25.88Z"/><ellipse class="cls-5" cx="121.22" cy="15.38" rx="15.8" ry="10.83"/><ellipse class="cls-5" cx="141.28" cy="19.17" rx="7.07" ry="7.35" transform="translate(13.45 82.3) rotate(-34.01)"/><polyline class="cls-16" points="142.45 72.96 154.03 98.23 141.28 113.87"/><path class="cls-1" d="M116.69,49.05s-2.31,1.31-4-1.86-3.06-5.9-3.06-5.9-1.9-2.74.36-4.28,2.55-1.21,2.8-2.37c0,0,.19-.14-.44-1.36l-1.78-3.44a1.39,1.39,0,0,0-1.94-.4c-1.31.68-7.65,3.33-1.29,16.07s12.45,10.09,14,9.28,1.23-1.7.7-2.72l-1.64-3.18a1.52,1.52,0,0,0-2.08-.66A16.76,16.76,0,0,1,116.69,49.05Z"/><line class="cls-7" x1="105.18" y1="51.64" x2="111.49" y2="48.09"/><line class="cls-7" x1="104.75" y1="49.66" x2="111.22" y2="44.12"/><line class="cls-7" x1="103.24" y1="48.64" x2="109.72" y2="40.8"/><path class="cls-7" d="M101.1,47s5.67-7.76,5.61-7.63"/><ellipse class="cls-8" cx="101.14" cy="51" rx="5" ry="5.02" transform="translate(-10.38 31.19) rotate(-16.69)"/><polyline class="cls-17" points="115.45 68.19 88.04 65.14 99.02 53.17"/><rect class="cls-3" x="158.2" y="128.75" width="9.8" height="50.9"/><rect class="cls-3" x="85.65" y="46.4" width="9.8" height="154.91" transform="translate(214.4 33.31) rotate(90)"/><path class="cls-4" d="M53.88,119H8v9.8H32.12c0-1.92,3.83-3.47,8.55-3.47h0c7.29,0,13.21-2.41,13.21-5.38Z"/><rect class="cls-18" x="121.84" y="104.1" width="8.22" height="14.86"/><rect class="cls-19" x="90.23" y="57.62" width="71.76" height="46.79" rx="2.86"/><path class="cls-19" d="M119.32,115.16h13.28a3.79,3.79,0,0,1,3.79,3.79v0a0,0,0,0,1,0,0H115.52a0,0,0,0,1,0,0v0A3.79,3.79,0,0,1,119.32,115.16Z"/><path class="cls-20" d="M126,71.85s-10.43-.63-9.48,10.43,13.91,10.12,16.76,7.27,1.73-8.69-1.43-8.69-5.69-1.26-4.58-4.58S127.69,71.85,126,71.85Z"/><path class="cls-18" d="M126.94,178.23h10.84a0,0,0,0,1,0,0v3.7a3.37,3.37,0,0,1-3.37,3.37h-11a1.78,1.78,0,0,1-1.78-1.78v0A5.29,5.29,0,0,1,126.94,178.23Z"/><path class="cls-18" d="M101.31,177.79h10.84a0,0,0,0,1,0,0v3.7a3.37,3.37,0,0,1-3.37,3.37h-11A1.78,1.78,0,0,1,96,183.08v0A5.29,5.29,0,0,1,101.31,177.79Z"/><path class="cls-21" d="M98.34,133.9v-1.43a3.64,3.64,0,0,1,3.71-3.56h42.49v6.22a3.84,3.84,0,0,1-3.92,3.76H112.49v39.34H98.22V133.9Z"/><path class="cls-22" d="M123.86,128.8h14a0,0,0,0,1,0,0V171a7,7,0,0,1-7,7h0a7,7,0,0,1-7-7V128.8a0,0,0,0,1,0,0Z" transform="translate(261.75 306.81) rotate(180)"/></svg>